<?xml version="1.0" encoding="utf-8"?>
<svg xmlns="http://www.w3.org/2000/svg" xmlns:xlink="http://www.w3.org/1999/xlink" width="600" height="400" viewBox="0 0 2400 1600">
<defs>
  <clipPath id="clip000">
    <rect x="0" y="0" width="2400" height="1600"/>
  </clipPath>
</defs>
<path clip-path="url(#clip000)" d="
M0 1600 L2400 1600 L2400 0 L0 0  Z
  " fill="#ffffff" fill-rule="evenodd" fill-opacity="1"/>
<defs>
  <clipPath id="clip001">
    <rect x="480" y="0" width="1681" height="1600"/>
  </clipPath>
</defs>
<path clip-path="url(#clip000)" d="
M251.88 1423.18 L1831.22 1423.18 L1831.22 47.2441 L251.88 47.2441  Z
  " fill="#ffffff" fill-rule="evenodd" fill-opacity="1"/>
<defs>
  <clipPath id="clip002">
    <rect x="251" y="47" width="1580" height="1377"/>
  </clipPath>
</defs>
<polyline clip-path="url(#clip002)" style="stroke:#000000; stroke-width:2; stroke-opacity:0.1; fill:none" points="
  386.394,1423.18 386.394,47.2441 
  "/>
<polyline clip-path="url(#clip002)" style="stroke:#000000; stroke-width:2; stroke-opacity:0.1; fill:none" points="
  505.513,1423.18 505.513,47.2441 
  "/>
<polyline clip-path="url(#clip002)" style="stroke:#000000; stroke-width:2; stroke-opacity:0.1; fill:none" points="
  624.632,1423.18 624.632,47.2441 
  "/>
<polyline clip-path="url(#clip002)" style="stroke:#000000; stroke-width:2; stroke-opacity:0.1; fill:none" points="
  743.751,1423.18 743.751,47.2441 
  "/>
<polyline clip-path="url(#clip002)" style="stroke:#000000; stroke-width:2; stroke-opacity:0.1; fill:none" points="
  862.871,1423.18 862.871,47.2441 
  "/>
<polyline clip-path="url(#clip002)" style="stroke:#000000; stroke-width:2; stroke-opacity:0.1; fill:none" points="
  981.99,1423.18 981.99,47.2441 
  "/>
<polyline clip-path="url(#clip002)" style="stroke:#000000; stroke-width:2; stroke-opacity:0.1; fill:none" points="
  1101.11,1423.18 1101.11,47.2441 
  "/>
<polyline clip-path="url(#clip002)" style="stroke:#000000; stroke-width:2; stroke-opacity:0.1; fill:none" points="
  1220.23,1423.18 1220.23,47.2441 
  "/>
<polyline clip-path="url(#clip002)" style="stroke:#000000; stroke-width:2; stroke-opacity:0.1; fill:none" points="
  1339.35,1423.18 1339.35,47.2441 
  "/>
<polyline clip-path="url(#clip002)" style="stroke:#000000; stroke-width:2; stroke-opacity:0.1; fill:none" points="
  1458.47,1423.18 1458.47,47.2441 
  "/>
<polyline clip-path="url(#clip002)" style="stroke:#000000; stroke-width:2; stroke-opacity:0.1; fill:none" points="
  1577.59,1423.18 1577.59,47.2441 
  "/>
<polyline clip-path="url(#clip002)" style="stroke:#000000; stroke-width:2; stroke-opacity:0.1; fill:none" points="
  1696.7,1423.18 1696.7,47.2441 
  "/>
<polyline clip-path="url(#clip000)" style="stroke:#000000; stroke-width:4; stroke-opacity:1; fill:none" points="
  251.88,1423.18 1831.22,1423.18 
  "/>
<polyline clip-path="url(#clip000)" style="stroke:#000000; stroke-width:4; stroke-opacity:1; fill:none" points="
  386.394,1423.18 386.394,1406.67 
  "/>
<polyline clip-path="url(#clip000)" style="stroke:#000000; stroke-width:4; stroke-opacity:1; fill:none" points="
  505.513,1423.18 505.513,1406.67 
  "/>
<polyline clip-path="url(#clip000)" style="stroke:#000000; stroke-width:4; stroke-opacity:1; fill:none" points="
  624.632,1423.18 624.632,1406.67 
  "/>
<polyline clip-path="url(#clip000)" style="stroke:#000000; stroke-width:4; stroke-opacity:1; fill:none" points="
  743.751,1423.18 743.751,1406.67 
  "/>
<polyline clip-path="url(#clip000)" style="stroke:#000000; stroke-width:4; stroke-opacity:1; fill:none" points="
  862.871,1423.18 862.871,1406.67 
  "/>
<polyline clip-path="url(#clip000)" style="stroke:#000000; stroke-width:4; stroke-opacity:1; fill:none" points="
  981.99,1423.18 981.99,1406.67 
  "/>
<polyline clip-path="url(#clip000)" style="stroke:#000000; stroke-width:4; stroke-opacity:1; fill:none" points="
  1101.11,1423.18 1101.11,1406.67 
  "/>
<polyline clip-path="url(#clip000)" style="stroke:#000000; stroke-width:4; stroke-opacity:1; fill:none" points="
  1220.23,1423.18 1220.23,1406.67 
  "/>
<polyline clip-path="url(#clip000)" style="stroke:#000000; stroke-width:4; stroke-opacity:1; fill:none" points="
  1339.35,1423.18 1339.35,1406.67 
  "/>
<polyline clip-path="url(#clip000)" style="stroke:#000000; stroke-width:4; stroke-opacity:1; fill:none" points="
  1458.47,1423.18 1458.47,1406.67 
  "/>
<polyline clip-path="url(#clip000)" style="stroke:#000000; stroke-width:4; stroke-opacity:1; fill:none" points="
  1577.59,1423.18 1577.59,1406.67 
  "/>
<polyline clip-path="url(#clip000)" style="stroke:#000000; stroke-width:4; stroke-opacity:1; fill:none" points="
  1696.7,1423.18 1696.7,1406.67 
  "/>
<path clip-path="url(#clip000)" d="M 0 0 M376.776 1479.92 L384.415 1479.92 L384.415 1453.55 L376.105 1455.22 L376.105 1450.96 L384.369 1449.29 L389.045 1449.29 L389.045 1479.92 L396.683 1479.92 L396.683 1483.85 L376.776 1483.85 L376.776 1479.92 Z" fill="#000000" fill-rule="evenodd" fill-opacity="1" /><path clip-path="url(#clip000)" d="M 0 0 M500.166 1479.92 L516.485 1479.92 L516.485 1483.85 L494.541 1483.85 L494.541 1479.92 Q497.203 1477.16 501.786 1472.53 Q506.393 1467.88 507.573 1466.54 Q509.819 1464.01 510.698 1462.28 Q511.601 1460.52 511.601 1458.83 Q511.601 1456.07 509.657 1454.34 Q507.735 1452.6 504.634 1452.6 Q502.435 1452.6 499.981 1453.37 Q497.55 1454.13 494.773 1455.68 L494.773 1450.96 Q497.597 1449.82 500.05 1449.25 Q502.504 1448.67 504.541 1448.67 Q509.911 1448.67 513.106 1451.35 Q516.3 1454.04 516.3 1458.53 Q516.3 1460.66 515.49 1462.58 Q514.703 1464.48 512.596 1467.07 Q512.018 1467.74 508.916 1470.96 Q505.814 1474.15 500.166 1479.92 Z" fill="#000000" fill-rule="evenodd" fill-opacity="1" /><path clip-path="url(#clip000)" d="M 0 0 M628.88 1465.22 Q632.236 1465.94 634.111 1468.2 Q636.01 1470.47 636.01 1473.81 Q636.01 1478.92 632.491 1481.72 Q628.973 1484.52 622.491 1484.52 Q620.315 1484.52 618 1484.08 Q615.709 1483.67 613.255 1482.81 L613.255 1478.3 Q615.199 1479.43 617.514 1480.01 Q619.829 1480.59 622.352 1480.59 Q626.75 1480.59 629.042 1478.85 Q631.357 1477.12 631.357 1473.81 Q631.357 1470.75 629.204 1469.04 Q627.074 1467.3 623.255 1467.3 L619.227 1467.3 L619.227 1463.46 L623.44 1463.46 Q626.889 1463.46 628.718 1462.09 Q630.547 1460.7 630.547 1458.11 Q630.547 1455.45 628.648 1454.04 Q626.774 1452.6 623.255 1452.6 Q621.334 1452.6 619.135 1453.02 Q616.936 1453.44 614.297 1454.31 L614.297 1450.15 Q616.959 1449.41 619.274 1449.04 Q621.611 1448.67 623.672 1448.67 Q628.996 1448.67 632.098 1451.1 Q635.199 1453.5 635.199 1457.63 Q635.199 1460.5 633.556 1462.49 Q631.912 1464.45 628.88 1465.22 Z" fill="#000000" fill-rule="evenodd" fill-opacity="1" /><path clip-path="url(#clip000)" d="M 0 0 M746.761 1453.37 L734.955 1471.81 L746.761 1471.81 L746.761 1453.37 M745.534 1449.29 L751.413 1449.29 L751.413 1471.81 L756.344 1471.81 L756.344 1475.7 L751.413 1475.7 L751.413 1483.85 L746.761 1483.85 L746.761 1475.7 L731.159 1475.7 L731.159 1471.19 L745.534 1449.29 Z" fill="#000000" fill-rule="evenodd" fill-opacity="1" /><path clip-path="url(#clip000)" d="M 0 0 M853.148 1449.29 L871.505 1449.29 L871.505 1453.23 L857.431 1453.23 L857.431 1461.7 Q858.449 1461.35 859.468 1461.19 Q860.486 1461 861.505 1461 Q867.292 1461 870.671 1464.18 Q874.051 1467.35 874.051 1472.76 Q874.051 1478.34 870.579 1481.44 Q867.107 1484.52 860.787 1484.52 Q858.611 1484.52 856.343 1484.15 Q854.097 1483.78 851.69 1483.04 L851.69 1478.34 Q853.773 1479.48 855.996 1480.03 Q858.218 1480.59 860.695 1480.59 Q864.699 1480.59 867.037 1478.48 Q869.375 1476.38 869.375 1472.76 Q869.375 1469.15 867.037 1467.05 Q864.699 1464.94 860.695 1464.94 Q858.82 1464.94 856.945 1465.36 Q855.093 1465.77 853.148 1466.65 L853.148 1449.29 Z" fill="#000000" fill-rule="evenodd" fill-opacity="1" /><path clip-path="url(#clip000)" d="M 0 0 M982.395 1464.71 Q979.247 1464.71 977.395 1466.86 Q975.566 1469.01 975.566 1472.76 Q975.566 1476.49 977.395 1478.67 Q979.247 1480.82 982.395 1480.82 Q985.543 1480.82 987.372 1478.67 Q989.223 1476.49 989.223 1472.76 Q989.223 1469.01 987.372 1466.86 Q985.543 1464.71 982.395 1464.71 M991.677 1450.06 L991.677 1454.31 Q989.918 1453.48 988.112 1453.04 Q986.33 1452.6 984.571 1452.6 Q979.941 1452.6 977.487 1455.73 Q975.057 1458.85 974.71 1465.17 Q976.075 1463.16 978.136 1462.09 Q980.196 1461 982.673 1461 Q987.881 1461 990.89 1464.18 Q993.922 1467.32 993.922 1472.76 Q993.922 1478.09 990.774 1481.31 Q987.626 1484.52 982.395 1484.52 Q976.399 1484.52 973.228 1479.94 Q970.057 1475.33 970.057 1466.61 Q970.057 1458.41 973.946 1453.55 Q977.835 1448.67 984.386 1448.67 Q986.145 1448.67 987.927 1449.01 Q989.733 1449.36 991.677 1450.06 Z" fill="#000000" fill-rule="evenodd" fill-opacity="1" /><path clip-path="url(#clip000)" d="M 0 0 M1090 1449.29 L1112.22 1449.29 L1112.22 1451.28 L1099.67 1483.85 L1094.79 1483.85 L1106.59 1453.23 L1090 1453.23 L1090 1449.29 Z" fill="#000000" fill-rule="evenodd" fill-opacity="1" /><path clip-path="url(#clip000)" d="M 0 0 M1220.23 1467.44 Q1216.89 1467.44 1214.97 1469.22 Q1213.08 1471 1213.08 1474.13 Q1213.08 1477.25 1214.97 1479.04 Q1216.89 1480.82 1220.23 1480.82 Q1223.56 1480.82 1225.48 1479.04 Q1227.4 1477.23 1227.4 1474.13 Q1227.4 1471 1225.48 1469.22 Q1223.58 1467.44 1220.23 1467.44 M1215.55 1465.45 Q1212.54 1464.71 1210.85 1462.65 Q1209.19 1460.59 1209.19 1457.63 Q1209.19 1453.48 1212.13 1451.07 Q1215.09 1448.67 1220.23 1448.67 Q1225.39 1448.67 1228.33 1451.07 Q1231.27 1453.48 1231.27 1457.63 Q1231.27 1460.59 1229.58 1462.65 Q1227.91 1464.71 1224.93 1465.45 Q1228.31 1466.24 1230.18 1468.53 Q1232.08 1470.82 1232.08 1474.13 Q1232.08 1479.15 1229 1481.84 Q1225.95 1484.52 1220.23 1484.52 Q1214.51 1484.52 1211.43 1481.84 Q1208.38 1479.15 1208.38 1474.13 Q1208.38 1470.82 1210.27 1468.53 Q1212.17 1466.24 1215.55 1465.45 M1213.84 1458.06 Q1213.84 1460.75 1215.51 1462.25 Q1217.2 1463.76 1220.23 1463.76 Q1223.24 1463.76 1224.93 1462.25 Q1226.64 1460.75 1226.64 1458.06 Q1226.64 1455.38 1224.93 1453.88 Q1223.24 1452.37 1220.23 1452.37 Q1217.2 1452.37 1215.51 1453.88 Q1213.84 1455.38 1213.84 1458.06 Z" fill="#000000" fill-rule="evenodd" fill-opacity="1" /><path clip-path="url(#clip000)" d="M 0 0 M1329.65 1483.13 L1329.65 1478.88 Q1331.41 1479.71 1333.21 1480.15 Q1335.02 1480.59 1336.75 1480.59 Q1341.38 1480.59 1343.81 1477.49 Q1346.27 1474.36 1346.62 1468.02 Q1345.27 1470.01 1343.21 1471.07 Q1341.15 1472.14 1338.65 1472.14 Q1333.47 1472.14 1330.44 1469.01 Q1327.43 1465.87 1327.43 1460.43 Q1327.43 1455.1 1330.57 1451.88 Q1333.72 1448.67 1338.95 1448.67 Q1344.95 1448.67 1348.1 1453.27 Q1351.27 1457.86 1351.27 1466.61 Q1351.27 1474.78 1347.38 1479.66 Q1343.51 1484.52 1336.96 1484.52 Q1335.2 1484.52 1333.4 1484.18 Q1331.59 1483.83 1329.65 1483.13 M1338.95 1468.48 Q1342.1 1468.48 1343.93 1466.33 Q1345.78 1464.18 1345.78 1460.43 Q1345.78 1456.7 1343.93 1454.55 Q1342.1 1452.37 1338.95 1452.37 Q1335.81 1452.37 1333.95 1454.55 Q1332.12 1456.7 1332.12 1460.43 Q1332.12 1464.18 1333.95 1466.33 Q1335.81 1468.48 1338.95 1468.48 Z" fill="#000000" fill-rule="evenodd" fill-opacity="1" /><path clip-path="url(#clip000)" d="M 0 0 M1435.34 1479.92 L1442.98 1479.92 L1442.98 1453.55 L1434.67 1455.22 L1434.67 1450.96 L1442.93 1449.29 L1447.61 1449.29 L1447.61 1479.92 L1455.25 1479.92 L1455.25 1483.85 L1435.34 1483.85 L1435.34 1479.92 Z" fill="#000000" fill-rule="evenodd" fill-opacity="1" /><path clip-path="url(#clip000)" d="M 0 0 M1470.32 1452.37 Q1466.71 1452.37 1464.88 1455.94 Q1463.07 1459.48 1463.07 1466.61 Q1463.07 1473.71 1464.88 1477.28 Q1466.71 1480.82 1470.32 1480.82 Q1473.95 1480.82 1475.76 1477.28 Q1477.59 1473.71 1477.59 1466.61 Q1477.59 1459.48 1475.76 1455.94 Q1473.95 1452.37 1470.32 1452.37 M1470.32 1448.67 Q1476.13 1448.67 1479.18 1453.27 Q1482.26 1457.86 1482.26 1466.61 Q1482.26 1475.33 1479.18 1479.94 Q1476.13 1484.52 1470.32 1484.52 Q1464.51 1484.52 1461.43 1479.94 Q1458.37 1475.33 1458.37 1466.61 Q1458.37 1457.86 1461.43 1453.27 Q1464.51 1448.67 1470.32 1448.67 Z" fill="#000000" fill-rule="evenodd" fill-opacity="1" /><path clip-path="url(#clip000)" d="M 0 0 M1555.07 1479.92 L1562.71 1479.92 L1562.71 1453.55 L1554.4 1455.22 L1554.4 1450.96 L1562.67 1449.29 L1567.34 1449.29 L1567.34 1479.92 L1574.98 1479.92 L1574.98 1483.85 L1555.07 1483.85 L1555.07 1479.92 Z" fill="#000000" fill-rule="evenodd" fill-opacity="1" /><path clip-path="url(#clip000)" d="M 0 0 M1580.86 1479.92 L1588.5 1479.92 L1588.5 1453.55 L1580.19 1455.22 L1580.19 1450.96 L1588.45 1449.29 L1593.13 1449.29 L1593.13 1479.92 L1600.77 1479.92 L1600.77 1483.85 L1580.86 1483.85 L1580.86 1479.92 Z" fill="#000000" fill-rule="evenodd" fill-opacity="1" /><path clip-path="url(#clip000)" d="M 0 0 M1674.38 1479.92 L1682.02 1479.92 L1682.02 1453.55 L1673.71 1455.22 L1673.71 1450.96 L1681.97 1449.29 L1686.65 1449.29 L1686.65 1479.92 L1694.29 1479.92 L1694.29 1483.85 L1674.38 1483.85 L1674.38 1479.92 Z" fill="#000000" fill-rule="evenodd" fill-opacity="1" /><path clip-path="url(#clip000)" d="M 0 0 M1703.38 1479.92 L1719.7 1479.92 L1719.7 1483.85 L1697.76 1483.85 L1697.76 1479.92 Q1700.42 1477.16 1705 1472.53 Q1709.61 1467.88 1710.79 1466.54 Q1713.04 1464.01 1713.91 1462.28 Q1714.82 1460.52 1714.82 1458.83 Q1714.82 1456.07 1712.87 1454.34 Q1710.95 1452.6 1707.85 1452.6 Q1705.65 1452.6 1703.2 1453.37 Q1700.77 1454.13 1697.99 1455.68 L1697.99 1450.96 Q1700.81 1449.82 1703.27 1449.25 Q1705.72 1448.67 1707.76 1448.67 Q1713.13 1448.67 1716.32 1451.35 Q1719.52 1454.04 1719.52 1458.53 Q1719.52 1460.66 1718.71 1462.58 Q1717.92 1464.48 1715.81 1467.07 Q1715.23 1467.74 1712.13 1470.96 Q1709.03 1474.15 1703.38 1479.92 Z" fill="#000000" fill-rule="evenodd" fill-opacity="1" /><path clip-path="url(#clip000)" d="M 0 0 M953.878 1520.52 L963.458 1520.52 L975.585 1552.86 L987.775 1520.52 L997.355 1520.52 L997.355 1568.04 L991.085 1568.04 L991.085 1526.32 L978.831 1558.91 L972.37 1558.91 L960.116 1526.32 L960.116 1568.04 L953.878 1568.04 L953.878 1520.52 Z" fill="#000000" fill-rule="evenodd" fill-opacity="1" /><path clip-path="url(#clip000)" d="M 0 0 M1017.31 1536.5 Q1012.6 1536.5 1009.86 1540.19 Q1007.13 1543.85 1007.13 1550.25 Q1007.13 1556.65 1009.83 1560.34 Q1012.57 1564 1017.31 1564 Q1021.99 1564 1024.73 1560.31 Q1027.47 1556.62 1027.47 1550.25 Q1027.47 1543.92 1024.73 1540.23 Q1021.99 1536.5 1017.31 1536.5 M1017.31 1531.54 Q1024.95 1531.54 1029.31 1536.5 Q1033.67 1541.47 1033.67 1550.25 Q1033.67 1559 1029.31 1564 Q1024.95 1568.97 1017.31 1568.97 Q1009.64 1568.97 1005.28 1564 Q1000.95 1559 1000.95 1550.25 Q1000.95 1541.47 1005.28 1536.5 Q1009.64 1531.54 1017.31 1531.54 Z" fill="#000000" fill-rule="evenodd" fill-opacity="1" /><path clip-path="url(#clip000)" d="M 0 0 M1069.45 1546.53 L1069.45 1568.04 L1063.59 1568.04 L1063.59 1546.72 Q1063.59 1541.66 1061.62 1539.14 Q1059.64 1536.63 1055.7 1536.63 Q1050.95 1536.63 1048.22 1539.65 Q1045.48 1542.68 1045.48 1547.9 L1045.48 1568.04 L1039.59 1568.04 L1039.59 1532.4 L1045.48 1532.4 L1045.48 1537.93 Q1047.58 1534.72 1050.41 1533.13 Q1053.28 1531.54 1057 1531.54 Q1063.14 1531.54 1066.3 1535.36 Q1069.45 1539.14 1069.45 1546.53 Z" fill="#000000" fill-rule="evenodd" fill-opacity="1" /><path clip-path="url(#clip000)" d="M 0 0 M1081.38 1522.27 L1081.38 1532.4 L1093.45 1532.4 L1093.45 1536.95 L1081.38 1536.95 L1081.38 1556.3 Q1081.38 1560.66 1082.56 1561.9 Q1083.77 1563.14 1087.43 1563.14 L1093.45 1563.14 L1093.45 1568.04 L1087.43 1568.04 Q1080.65 1568.04 1078.07 1565.53 Q1075.49 1562.98 1075.49 1556.3 L1075.49 1536.95 L1071.2 1536.95 L1071.2 1532.4 L1075.49 1532.4 L1075.49 1522.27 L1081.38 1522.27 Z" fill="#000000" fill-rule="evenodd" fill-opacity="1" /><path clip-path="url(#clip000)" d="M 0 0 M1129.22 1546.53 L1129.22 1568.04 L1123.36 1568.04 L1123.36 1546.72 Q1123.36 1541.66 1121.39 1539.14 Q1119.42 1536.63 1115.47 1536.63 Q1110.73 1536.63 1107.99 1539.65 Q1105.25 1542.68 1105.25 1547.9 L1105.25 1568.04 L1099.37 1568.04 L1099.37 1518.52 L1105.25 1518.52 L1105.25 1537.93 Q1107.35 1534.72 1110.19 1533.13 Q1113.05 1531.54 1116.78 1531.54 Q1122.92 1531.54 1126.07 1535.36 Q1129.22 1539.14 1129.22 1546.53 Z" fill="#000000" fill-rule="evenodd" fill-opacity="1" /><polyline clip-path="url(#clip002)" style="stroke:#000000; stroke-width:2; stroke-opacity:0.1; fill:none" points="
  251.88,1384.24 1831.22,1384.24 
  "/>
<polyline clip-path="url(#clip002)" style="stroke:#000000; stroke-width:2; stroke-opacity:0.1; fill:none" points="
  251.88,1073.45 1831.22,1073.45 
  "/>
<polyline clip-path="url(#clip002)" style="stroke:#000000; stroke-width:2; stroke-opacity:0.1; fill:none" points="
  251.88,762.671 1831.22,762.671 
  "/>
<polyline clip-path="url(#clip002)" style="stroke:#000000; stroke-width:2; stroke-opacity:0.1; fill:none" points="
  251.88,451.888 1831.22,451.888 
  "/>
<polyline clip-path="url(#clip002)" style="stroke:#000000; stroke-width:2; stroke-opacity:0.1; fill:none" points="
  251.88,141.105 1831.22,141.105 
  "/>
<polyline clip-path="url(#clip000)" style="stroke:#000000; stroke-width:4; stroke-opacity:1; fill:none" points="
  251.88,1423.18 251.88,47.2441 
  "/>
<polyline clip-path="url(#clip000)" style="stroke:#000000; stroke-width:4; stroke-opacity:1; fill:none" points="
  251.88,1384.24 270.832,1384.24 
  "/>
<polyline clip-path="url(#clip000)" style="stroke:#000000; stroke-width:4; stroke-opacity:1; fill:none" points="
  251.88,1073.45 270.832,1073.45 
  "/>
<polyline clip-path="url(#clip000)" style="stroke:#000000; stroke-width:4; stroke-opacity:1; fill:none" points="
  251.88,762.671 270.832,762.671 
  "/>
<polyline clip-path="url(#clip000)" style="stroke:#000000; stroke-width:4; stroke-opacity:1; fill:none" points="
  251.88,451.888 270.832,451.888 
  "/>
<polyline clip-path="url(#clip000)" style="stroke:#000000; stroke-width:4; stroke-opacity:1; fill:none" points="
  251.88,141.105 270.832,141.105 
  "/>
<path clip-path="url(#clip000)" d="M 0 0 M203.936 1370.04 Q200.325 1370.04 198.496 1373.6 Q196.69 1377.14 196.69 1384.27 Q196.69 1391.38 198.496 1394.94 Q200.325 1398.49 203.936 1398.49 Q207.57 1398.49 209.375 1394.94 Q211.204 1391.38 211.204 1384.27 Q211.204 1377.14 209.375 1373.6 Q207.57 1370.04 203.936 1370.04 M203.936 1366.33 Q209.746 1366.33 212.801 1370.94 Q215.88 1375.52 215.88 1384.27 Q215.88 1393 212.801 1397.61 Q209.746 1402.19 203.936 1402.19 Q198.125 1402.19 195.047 1397.61 Q191.991 1393 191.991 1384.27 Q191.991 1375.52 195.047 1370.94 Q198.125 1366.33 203.936 1366.33 Z" fill="#000000" fill-rule="evenodd" fill-opacity="1" /><path clip-path="url(#clip000)" d="M 0 0 M146.529 1086.8 L162.848 1086.8 L162.848 1090.73 L140.904 1090.73 L140.904 1086.8 Q143.566 1084.05 148.149 1079.42 Q152.755 1074.76 153.936 1073.42 Q156.181 1070.9 157.061 1069.16 Q157.964 1067.4 157.964 1065.71 Q157.964 1062.96 156.019 1061.22 Q154.098 1059.48 150.996 1059.48 Q148.797 1059.48 146.343 1060.25 Q143.913 1061.01 141.135 1062.56 L141.135 1057.84 Q143.959 1056.71 146.413 1056.13 Q148.866 1055.55 150.903 1055.55 Q156.274 1055.55 159.468 1058.24 Q162.663 1060.92 162.663 1065.41 Q162.663 1067.54 161.852 1069.46 Q161.065 1071.36 158.959 1073.95 Q158.38 1074.62 155.278 1077.84 Q152.177 1081.04 146.529 1086.8 Z" fill="#000000" fill-rule="evenodd" fill-opacity="1" /><path clip-path="url(#clip000)" d="M 0 0 M167.964 1056.17 L186.32 1056.17 L186.32 1060.11 L172.246 1060.11 L172.246 1068.58 Q173.264 1068.23 174.283 1068.07 Q175.301 1067.89 176.32 1067.89 Q182.107 1067.89 185.487 1071.06 Q188.866 1074.23 188.866 1079.65 Q188.866 1085.23 185.394 1088.33 Q181.922 1091.41 175.602 1091.41 Q173.427 1091.41 171.158 1091.04 Q168.913 1090.67 166.505 1089.92 L166.505 1085.23 Q168.589 1086.36 170.811 1086.92 Q173.033 1087.47 175.51 1087.47 Q179.514 1087.47 181.852 1085.36 Q184.19 1083.26 184.19 1079.65 Q184.19 1076.04 181.852 1073.93 Q179.514 1071.82 175.51 1071.82 Q173.635 1071.82 171.76 1072.24 Q169.908 1072.66 167.964 1073.54 L167.964 1056.17 Z" fill="#000000" fill-rule="evenodd" fill-opacity="1" /><path clip-path="url(#clip000)" d="M 0 0 M203.936 1059.25 Q200.325 1059.25 198.496 1062.82 Q196.69 1066.36 196.69 1073.49 Q196.69 1080.6 198.496 1084.16 Q200.325 1087.7 203.936 1087.7 Q207.57 1087.7 209.375 1084.16 Q211.204 1080.6 211.204 1073.49 Q211.204 1066.36 209.375 1062.82 Q207.57 1059.25 203.936 1059.25 M203.936 1055.55 Q209.746 1055.55 212.801 1060.16 Q215.88 1064.74 215.88 1073.49 Q215.88 1082.22 212.801 1086.82 Q209.746 1091.41 203.936 1091.41 Q198.125 1091.41 195.047 1086.82 Q191.991 1082.22 191.991 1073.49 Q191.991 1064.74 195.047 1060.16 Q198.125 1055.55 203.936 1055.55 Z" fill="#000000" fill-rule="evenodd" fill-opacity="1" /><path clip-path="url(#clip000)" d="M 0 0 M140.95 745.391 L159.306 745.391 L159.306 749.327 L145.232 749.327 L145.232 757.799 Q146.251 757.452 147.269 757.289 Q148.288 757.104 149.306 757.104 Q155.093 757.104 158.473 760.276 Q161.852 763.447 161.852 768.863 Q161.852 774.442 158.38 777.544 Q154.908 780.623 148.589 780.623 Q146.413 780.623 144.144 780.252 Q141.899 779.882 139.492 779.141 L139.492 774.442 Q141.575 775.576 143.797 776.132 Q146.019 776.688 148.496 776.688 Q152.501 776.688 154.839 774.581 Q157.177 772.475 157.177 768.863 Q157.177 765.252 154.839 763.146 Q152.501 761.039 148.496 761.039 Q146.621 761.039 144.746 761.456 Q142.894 761.873 140.95 762.752 L140.95 745.391 Z" fill="#000000" fill-rule="evenodd" fill-opacity="1" /><path clip-path="url(#clip000)" d="M 0 0 M176.922 748.47 Q173.311 748.47 171.482 752.035 Q169.677 755.577 169.677 762.706 Q169.677 769.813 171.482 773.377 Q173.311 776.919 176.922 776.919 Q180.556 776.919 182.362 773.377 Q184.19 769.813 184.19 762.706 Q184.19 755.577 182.362 752.035 Q180.556 748.47 176.922 748.47 M176.922 744.766 Q182.732 744.766 185.788 749.373 Q188.866 753.956 188.866 762.706 Q188.866 771.433 185.788 776.039 Q182.732 780.623 176.922 780.623 Q171.112 780.623 168.033 776.039 Q164.977 771.433 164.977 762.706 Q164.977 753.956 168.033 749.373 Q171.112 744.766 176.922 744.766 Z" fill="#000000" fill-rule="evenodd" fill-opacity="1" /><path clip-path="url(#clip000)" d="M 0 0 M203.936 748.47 Q200.325 748.47 198.496 752.035 Q196.69 755.577 196.69 762.706 Q196.69 769.813 198.496 773.377 Q200.325 776.919 203.936 776.919 Q207.57 776.919 209.375 773.377 Q211.204 769.813 211.204 762.706 Q211.204 755.577 209.375 752.035 Q207.57 748.47 203.936 748.47 M203.936 744.766 Q209.746 744.766 212.801 749.373 Q215.88 753.956 215.88 762.706 Q215.88 771.433 212.801 776.039 Q209.746 780.623 203.936 780.623 Q198.125 780.623 195.047 776.039 Q191.991 771.433 191.991 762.706 Q191.991 753.956 195.047 749.373 Q198.125 744.766 203.936 744.766 Z" fill="#000000" fill-rule="evenodd" fill-opacity="1" /><path clip-path="url(#clip000)" d="M 0 0 M140.626 434.608 L162.848 434.608 L162.848 436.599 L150.302 469.168 L145.417 469.168 L157.223 438.543 L140.626 438.543 L140.626 434.608 Z" fill="#000000" fill-rule="evenodd" fill-opacity="1" /><path clip-path="url(#clip000)" d="M 0 0 M167.964 434.608 L186.32 434.608 L186.32 438.543 L172.246 438.543 L172.246 447.015 Q173.264 446.668 174.283 446.506 Q175.301 446.321 176.32 446.321 Q182.107 446.321 185.487 449.492 Q188.866 452.663 188.866 458.08 Q188.866 463.659 185.394 466.761 Q181.922 469.839 175.602 469.839 Q173.427 469.839 171.158 469.469 Q168.913 469.099 166.505 468.358 L166.505 463.659 Q168.589 464.793 170.811 465.349 Q173.033 465.904 175.51 465.904 Q179.514 465.904 181.852 463.798 Q184.19 461.691 184.19 458.08 Q184.19 454.469 181.852 452.363 Q179.514 450.256 175.51 450.256 Q173.635 450.256 171.76 450.673 Q169.908 451.089 167.964 451.969 L167.964 434.608 Z" fill="#000000" fill-rule="evenodd" fill-opacity="1" /><path clip-path="url(#clip000)" d="M 0 0 M203.936 437.687 Q200.325 437.687 198.496 441.251 Q196.69 444.793 196.69 451.923 Q196.69 459.029 198.496 462.594 Q200.325 466.136 203.936 466.136 Q207.57 466.136 209.375 462.594 Q211.204 459.029 211.204 451.923 Q211.204 444.793 209.375 441.251 Q207.57 437.687 203.936 437.687 M203.936 433.983 Q209.746 433.983 212.801 438.589 Q215.88 443.173 215.88 451.923 Q215.88 460.649 212.801 465.256 Q209.746 469.839 203.936 469.839 Q198.125 469.839 195.047 465.256 Q191.991 460.649 191.991 451.923 Q191.991 443.173 195.047 438.589 Q198.125 433.983 203.936 433.983 Z" fill="#000000" fill-rule="evenodd" fill-opacity="1" /><path clip-path="url(#clip000)" d="M 0 0 M114.931 154.449 L122.57 154.449 L122.57 128.084 L114.26 129.75 L114.26 125.491 L122.524 123.825 L127.2 123.825 L127.2 154.449 L134.839 154.449 L134.839 158.385 L114.931 158.385 L114.931 154.449 Z" fill="#000000" fill-rule="evenodd" fill-opacity="1" /><path clip-path="url(#clip000)" d="M 0 0 M149.908 126.903 Q146.297 126.903 144.468 130.468 Q142.663 134.01 142.663 141.139 Q142.663 148.246 144.468 151.81 Q146.297 155.352 149.908 155.352 Q153.542 155.352 155.348 151.81 Q157.177 148.246 157.177 141.139 Q157.177 134.01 155.348 130.468 Q153.542 126.903 149.908 126.903 M149.908 123.2 Q155.718 123.2 158.774 127.806 Q161.852 132.389 161.852 141.139 Q161.852 149.866 158.774 154.473 Q155.718 159.056 149.908 159.056 Q144.098 159.056 141.019 154.473 Q137.964 149.866 137.964 141.139 Q137.964 132.389 141.019 127.806 Q144.098 123.2 149.908 123.2 Z" fill="#000000" fill-rule="evenodd" fill-opacity="1" /><path clip-path="url(#clip000)" d="M 0 0 M176.922 126.903 Q173.311 126.903 171.482 130.468 Q169.677 134.01 169.677 141.139 Q169.677 148.246 171.482 151.81 Q173.311 155.352 176.922 155.352 Q180.556 155.352 182.362 151.81 Q184.19 148.246 184.19 141.139 Q184.19 134.01 182.362 130.468 Q180.556 126.903 176.922 126.903 M176.922 123.2 Q182.732 123.2 185.788 127.806 Q188.866 132.389 188.866 141.139 Q188.866 149.866 185.788 154.473 Q182.732 159.056 176.922 159.056 Q171.112 159.056 168.033 154.473 Q164.977 149.866 164.977 141.139 Q164.977 132.389 168.033 127.806 Q171.112 123.2 176.922 123.2 Z" fill="#000000" fill-rule="evenodd" fill-opacity="1" /><path clip-path="url(#clip000)" d="M 0 0 M203.936 126.903 Q200.325 126.903 198.496 130.468 Q196.69 134.01 196.69 141.139 Q196.69 148.246 198.496 151.81 Q200.325 155.352 203.936 155.352 Q207.57 155.352 209.375 151.81 Q211.204 148.246 211.204 141.139 Q211.204 134.01 209.375 130.468 Q207.57 126.903 203.936 126.903 M203.936 123.2 Q209.746 123.2 212.801 127.806 Q215.88 132.389 215.88 141.139 Q215.88 149.866 212.801 154.473 Q209.746 159.056 203.936 159.056 Q198.125 159.056 195.047 154.473 Q191.991 149.866 191.991 141.139 Q191.991 132.389 195.047 127.806 Q198.125 123.2 203.936 123.2 Z" fill="#000000" fill-rule="evenodd" fill-opacity="1" /><path clip-path="url(#clip000)" d="M 0 0 M16.4842 954.049 L16.4842 924.003 L21.895 924.003 L21.895 947.62 L35.9632 947.62 L35.9632 924.99 L41.3741 924.99 L41.3741 947.62 L58.5933 947.62 L58.5933 923.43 L64.0042 923.43 L64.0042 954.049 L16.4842 954.049 Z" fill="#000000" fill-rule="evenodd" fill-opacity="1" /><path clip-path="url(#clip000)" d="M 0 0 M42.4881 887.655 L64.0042 887.655 L64.0042 893.511 L42.679 893.511 Q37.6183 893.511 35.1038 895.485 Q32.5894 897.458 32.5894 901.405 Q32.5894 906.147 35.6131 908.884 Q38.6368 911.622 43.8567 911.622 L64.0042 911.622 L64.0042 917.51 L28.3562 917.51 L28.3562 911.622 L33.8944 911.622 Q30.6797 909.521 29.0883 906.688 Q27.4968 903.824 27.4968 900.1 Q27.4968 893.957 31.3163 890.806 Q35.1038 887.655 42.4881 887.655 Z" fill="#000000" fill-rule="evenodd" fill-opacity="1" /><path clip-path="url(#clip000)" d="M 0 0 M44.7161 851.02 L47.5806 851.02 L47.5806 877.947 Q53.6281 877.565 56.8109 874.319 Q59.9619 871.04 59.9619 865.216 Q59.9619 861.842 59.1344 858.691 Q58.3069 855.508 56.6518 852.389 L62.1899 852.389 Q63.5267 855.54 64.227 858.85 Q64.9272 862.16 64.9272 865.566 Q64.9272 874.096 59.9619 879.093 Q54.9967 884.058 46.5303 884.058 Q37.7774 884.058 32.6531 879.347 Q27.4968 874.605 27.4968 866.584 Q27.4968 859.391 32.1438 855.221 Q36.7589 851.02 44.7161 851.02 M42.9973 856.877 Q38.1912 856.94 35.3266 859.582 Q32.4621 862.192 32.4621 866.521 Q32.4621 871.422 35.2312 874.382 Q38.0002 877.31 43.0292 877.756 L42.9973 856.877 Z" fill="#000000" fill-rule="evenodd" fill-opacity="1" /><path clip-path="url(#clip000)" d="M 0 0 M33.8307 824.22 Q33.2578 825.207 33.0032 826.385 Q32.7167 827.531 32.7167 828.931 Q32.7167 833.896 35.9632 836.57 Q39.1779 839.212 45.2253 839.212 L64.0042 839.212 L64.0042 845.1 L28.3562 845.1 L28.3562 839.212 L33.8944 839.212 Q30.6479 837.366 29.0883 834.406 Q27.4968 831.446 27.4968 827.212 Q27.4968 826.608 27.5923 825.876 Q27.656 825.143 27.8151 824.252 L33.8307 824.22 Z" fill="#000000" fill-rule="evenodd" fill-opacity="1" /><path clip-path="url(#clip000)" d="M 0 0 M45.7664 795.766 Q39.4007 795.766 35.8996 798.408 Q32.3984 801.017 32.3984 805.76 Q32.3984 810.471 35.8996 813.112 Q39.4007 815.722 45.7664 815.722 Q52.1003 815.722 55.6014 813.112 Q59.1026 810.471 59.1026 805.76 Q59.1026 801.017 55.6014 798.408 Q52.1003 795.766 45.7664 795.766 M59.58 789.909 Q68.683 789.909 73.1071 793.952 Q77.5631 797.994 77.5631 806.333 Q77.5631 809.42 77.0857 812.157 Q76.6401 814.895 75.6852 817.473 L69.9879 817.473 Q71.3884 814.895 72.0568 812.38 Q72.7252 809.866 72.7252 807.256 Q72.7252 801.495 69.7015 798.63 Q66.7096 795.766 60.6303 795.766 L57.7339 795.766 Q60.885 797.58 62.4446 800.413 Q64.0042 803.245 64.0042 807.192 Q64.0042 813.749 59.0071 817.759 Q54.01 821.77 45.7664 821.77 Q37.491 821.77 32.4939 817.759 Q27.4968 813.749 27.4968 807.192 Q27.4968 803.245 29.0564 800.413 Q30.616 797.58 33.7671 795.766 L28.3562 795.766 L28.3562 789.909 L59.58 789.909 Z" fill="#000000" fill-rule="evenodd" fill-opacity="1" /><path clip-path="url(#clip000)" d="M 0 0 M67.3143 768.934 Q73.68 771.417 75.6216 773.772 Q77.5631 776.128 77.5631 780.074 L77.5631 784.753 L72.6615 784.753 L72.6615 781.316 Q72.6615 778.897 71.5157 777.56 Q70.3699 776.223 66.1048 774.6 L63.4312 773.549 L28.3562 787.968 L28.3562 781.761 L56.238 770.621 L28.3562 759.481 L28.3562 753.275 L67.3143 768.934 Z" fill="#000000" fill-rule="evenodd" fill-opacity="1" /><path clip-path="url(#clip000)" d="M 0 0 M14.5426 712.343 Q21.8632 716.608 29.0246 718.677 Q36.186 720.746 43.5384 720.746 Q50.8908 720.746 58.1159 718.677 Q65.3091 716.576 72.5979 712.343 L72.5979 717.436 Q65.1182 722.21 57.8931 724.597 Q50.668 726.952 43.5384 726.952 Q36.4406 726.952 29.2474 724.597 Q22.0542 722.242 14.5426 717.436 L14.5426 712.343 Z" fill="#000000" fill-rule="evenodd" fill-opacity="1" /><path clip-path="url(#clip000)" d="M 0 0 M14.479 706.423 L14.479 700.535 L43.7294 700.535 L28.3562 683.061 L28.3562 675.581 L45.0344 694.487 L64.0042 674.785 L64.0042 682.424 L46.5939 700.535 L64.0042 700.535 L64.0042 706.423 L14.479 706.423 Z" fill="#000000" fill-rule="evenodd" fill-opacity="1" /><path clip-path="url(#clip000)" d="M 0 0 M16.4842 672.621 L16.4842 666.128 L56.6518 656.134 L16.4842 646.172 L16.4842 638.947 L56.6518 628.952 L16.4842 618.99 L16.4842 612.465 L64.0042 624.401 L64.0042 632.485 L22.7544 642.511 L64.0042 652.633 L64.0042 660.717 L16.4842 672.621 Z" fill="#000000" fill-rule="evenodd" fill-opacity="1" /><path clip-path="url(#clip000)" d="M 0 0 M37.3318 605.495 L37.3318 598.779 L45.4163 598.779 L45.4163 605.495 L37.3318 605.495 Z" fill="#000000" fill-rule="evenodd" fill-opacity="1" /><path clip-path="url(#clip000)" d="M 0 0 M42.4881 563.004 L64.0042 563.004 L64.0042 568.86 L42.679 568.86 Q37.6183 568.86 35.1038 570.834 Q32.5894 572.807 32.5894 576.754 Q32.5894 581.496 35.6131 584.233 Q38.6368 586.971 43.8567 586.971 L64.0042 586.971 L64.0042 592.859 L14.479 592.859 L14.479 586.971 L33.8944 586.971 Q30.6797 584.87 29.0883 582.037 Q27.4968 579.173 27.4968 575.449 Q27.4968 569.306 31.3163 566.155 Q35.1038 563.004 42.4881 563.004 Z" fill="#000000" fill-rule="evenodd" fill-opacity="1" /><path clip-path="url(#clip000)" d="M 0 0 M33.8307 536.204 Q33.2578 537.191 33.0032 538.368 Q32.7167 539.514 32.7167 540.915 Q32.7167 545.88 35.9632 548.554 Q39.1779 551.195 45.2253 551.195 L64.0042 551.195 L64.0042 557.084 L28.3562 557.084 L28.3562 551.195 L33.8944 551.195 Q30.6479 549.349 29.0883 546.389 Q27.4968 543.429 27.4968 539.196 Q27.4968 538.591 27.5923 537.859 Q27.656 537.127 27.8151 536.236 L33.8307 536.204 Z" fill="#000000" fill-rule="evenodd" fill-opacity="1" /><path clip-path="url(#clip000)" d="M 0 0 M14.5426 530.984 L14.5426 525.892 Q22.0542 521.117 29.2474 518.762 Q36.4406 516.375 43.5384 516.375 Q50.668 516.375 57.8931 518.762 Q65.1182 521.117 72.5979 525.892 L72.5979 530.984 Q65.3091 526.751 58.1159 524.682 Q50.8908 522.581 43.5384 522.581 Q36.186 522.581 29.0246 524.682 Q21.8632 526.751 14.5426 530.984 Z" fill="#000000" fill-rule="evenodd" fill-opacity="1" /><path clip-path="url(#clip002)" d="
M338.746 86.1857 L338.746 632.819 L434.042 632.819 L434.042 86.1857 L338.746 86.1857 L338.746 86.1857  Z
  " fill="#009af9" fill-rule="evenodd" fill-opacity="1"/>
<polyline clip-path="url(#clip002)" style="stroke:#000000; stroke-width:4; stroke-opacity:1; fill:none" points="
  338.746,86.1857 338.746,632.819 434.042,632.819 434.042,86.1857 338.746,86.1857 
  "/>
<path clip-path="url(#clip002)" d="
M457.866 186.572 L457.866 721.091 L553.161 721.091 L553.161 186.572 L457.866 186.572 L457.866 186.572  Z
  " fill="#009af9" fill-rule="evenodd" fill-opacity="1"/>
<polyline clip-path="url(#clip002)" style="stroke:#000000; stroke-width:4; stroke-opacity:1; fill:none" points="
  457.866,186.572 457.866,721.091 553.161,721.091 553.161,186.572 457.866,186.572 
  "/>
<path clip-path="url(#clip002)" d="
M576.985 248.6 L576.985 779.824 L672.28 779.824 L672.28 248.6 L576.985 248.6 L576.985 248.6  Z
  " fill="#009af9" fill-rule="evenodd" fill-opacity="1"/>
<polyline clip-path="url(#clip002)" style="stroke:#000000; stroke-width:4; stroke-opacity:1; fill:none" points="
  576.985,248.6 576.985,779.824 672.28,779.824 672.28,248.6 576.985,248.6 
  "/>
<path clip-path="url(#clip002)" d="
M696.104 584.821 L696.104 1048.62 L791.399 1048.62 L791.399 584.821 L696.104 584.821 L696.104 584.821  Z
  " fill="#009af9" fill-rule="evenodd" fill-opacity="1"/>
<polyline clip-path="url(#clip002)" style="stroke:#000000; stroke-width:4; stroke-opacity:1; fill:none" points="
  696.104,584.821 696.104,1048.62 791.399,1048.62 791.399,584.821 696.104,584.821 
  "/>
<path clip-path="url(#clip002)" d="
M815.223 802.91 L815.223 1194.6 L910.518 1194.6 L910.518 802.91 L815.223 802.91 L815.223 802.91  Z
  " fill="#009af9" fill-rule="evenodd" fill-opacity="1"/>
<polyline clip-path="url(#clip002)" style="stroke:#000000; stroke-width:4; stroke-opacity:1; fill:none" points="
  815.223,802.91 815.223,1194.6 910.518,1194.6 910.518,802.91 815.223,802.91 
  "/>
<path clip-path="url(#clip002)" d="
M934.342 840.741 L934.342 1191.67 L1029.64 1191.67 L1029.64 840.741 L934.342 840.741 L934.342 840.741  Z
  " fill="#009af9" fill-rule="evenodd" fill-opacity="1"/>
<polyline clip-path="url(#clip002)" style="stroke:#000000; stroke-width:4; stroke-opacity:1; fill:none" points="
  934.342,840.741 934.342,1191.67 1029.64,1191.67 1029.64,840.741 934.342,840.741 
  "/>
<path clip-path="url(#clip002)" d="
M1053.46 827.912 L1053.46 1186.94 L1148.76 1186.94 L1148.76 827.912 L1053.46 827.912 L1053.46 827.912  Z
  " fill="#009af9" fill-rule="evenodd" fill-opacity="1"/>
<polyline clip-path="url(#clip002)" style="stroke:#000000; stroke-width:4; stroke-opacity:1; fill:none" points="
  1053.46,827.912 1053.46,1186.94 1148.76,1186.94 1148.76,827.912 1053.46,827.912 
  "/>
<path clip-path="url(#clip002)" d="
M1172.58 827.936 L1172.58 1182.64 L1267.88 1182.64 L1267.88 827.936 L1172.58 827.936 L1172.58 827.936  Z
  " fill="#009af9" fill-rule="evenodd" fill-opacity="1"/>
<polyline clip-path="url(#clip002)" style="stroke:#000000; stroke-width:4; stroke-opacity:1; fill:none" points="
  1172.58,827.936 1172.58,1182.64 1267.88,1182.64 1267.88,827.936 1172.58,827.936 
  "/>
<path clip-path="url(#clip002)" d="
M1291.7 622.346 L1291.7 1165.2 L1386.99 1165.2 L1386.99 622.346 L1291.7 622.346 L1291.7 622.346  Z
  " fill="#009af9" fill-rule="evenodd" fill-opacity="1"/>
<polyline clip-path="url(#clip002)" style="stroke:#000000; stroke-width:4; stroke-opacity:1; fill:none" points="
  1291.7,622.346 1291.7,1165.2 1386.99,1165.2 1386.99,622.346 1291.7,622.346 
  "/>
<path clip-path="url(#clip002)" d="
M1410.82 438.323 L1410.82 936.196 L1506.11 936.196 L1506.11 438.323 L1410.82 438.323 L1410.82 438.323  Z
  " fill="#009af9" fill-rule="evenodd" fill-opacity="1"/>
<polyline clip-path="url(#clip002)" style="stroke:#000000; stroke-width:4; stroke-opacity:1; fill:none" points="
  1410.82,438.323 1410.82,936.196 1506.11,936.196 1506.11,438.323 1410.82,438.323 
  "/>
<path clip-path="url(#clip002)" d="
M1529.94 315.966 L1529.94 804.885 L1625.23 804.885 L1625.23 315.966 L1529.94 315.966 L1529.94 315.966  Z
  " fill="#009af9" fill-rule="evenodd" fill-opacity="1"/>
<polyline clip-path="url(#clip002)" style="stroke:#000000; stroke-width:4; stroke-opacity:1; fill:none" points="
  1529.94,315.966 1529.94,804.885 1625.23,804.885 1625.23,315.966 1529.94,315.966 
  "/>
<path clip-path="url(#clip002)" d="
M1649.06 149.748 L1649.06 649.903 L1744.35 649.903 L1744.35 149.748 L1649.06 149.748 L1649.06 149.748  Z
  " fill="#009af9" fill-rule="evenodd" fill-opacity="1"/>
<polyline clip-path="url(#clip002)" style="stroke:#000000; stroke-width:4; stroke-opacity:1; fill:none" points="
  1649.06,149.748 1649.06,649.903 1744.35,649.903 1744.35,149.748 1649.06,149.748 
  "/>
<path clip-path="url(#clip002)" d="
M338.746 632.819 L338.746 707.208 L434.042 707.208 L434.042 632.819 L338.746 632.819 L338.746 632.819  Z
  " fill="#e26f46" fill-rule="evenodd" fill-opacity="1"/>
<polyline clip-path="url(#clip002)" style="stroke:#000000; stroke-width:4; stroke-opacity:1; fill:none" points="
  338.746,632.819 338.746,707.208 434.042,707.208 434.042,632.819 338.746,632.819 
  "/>
<path clip-path="url(#clip002)" d="
M457.866 721.091 L457.866 777.622 L553.161 777.622 L553.161 721.091 L457.866 721.091 L457.866 721.091  Z
  " fill="#e26f46" fill-rule="evenodd" fill-opacity="1"/>
<polyline clip-path="url(#clip002)" style="stroke:#000000; stroke-width:4; stroke-opacity:1; fill:none" points="
  457.866,721.091 457.866,777.622 553.161,777.622 553.161,721.091 457.866,721.091 
  "/>
<path clip-path="url(#clip002)" d="
M576.985 779.824 L576.985 871.79 L672.28 871.79 L672.28 779.824 L576.985 779.824 L576.985 779.824  Z
  " fill="#e26f46" fill-rule="evenodd" fill-opacity="1"/>
<polyline clip-path="url(#clip002)" style="stroke:#000000; stroke-width:4; stroke-opacity:1; fill:none" points="
  576.985,779.824 576.985,871.79 672.28,871.79 672.28,779.824 576.985,779.824 
  "/>
<path clip-path="url(#clip002)" d="
M696.104 1048.62 L696.104 1152.75 L791.399 1152.75 L791.399 1048.62 L696.104 1048.62 L696.104 1048.62  Z
  " fill="#e26f46" fill-rule="evenodd" fill-opacity="1"/>
<polyline clip-path="url(#clip002)" style="stroke:#000000; stroke-width:4; stroke-opacity:1; fill:none" points="
  696.104,1048.62 696.104,1152.75 791.399,1152.75 791.399,1048.62 696.104,1048.62 
  "/>
<path clip-path="url(#clip002)" d="
M815.223 1194.6 L815.223 1262.91 L910.518 1262.91 L910.518 1194.6 L815.223 1194.6 L815.223 1194.6  Z
  " fill="#e26f46" fill-rule="evenodd" fill-opacity="1"/>
<polyline clip-path="url(#clip002)" style="stroke:#000000; stroke-width:4; stroke-opacity:1; fill:none" points="
  815.223,1194.6 815.223,1262.91 910.518,1262.91 910.518,1194.6 815.223,1194.6 
  "/>
<path clip-path="url(#clip002)" d="
M934.342 1191.67 L934.342 1267.28 L1029.64 1267.28 L1029.64 1191.67 L934.342 1191.67 L934.342 1191.67  Z
  " fill="#e26f46" fill-rule="evenodd" fill-opacity="1"/>
<polyline clip-path="url(#clip002)" style="stroke:#000000; stroke-width:4; stroke-opacity:1; fill:none" points="
  934.342,1191.67 934.342,1267.28 1029.64,1267.28 1029.64,1191.67 934.342,1191.67 
  "/>
<path clip-path="url(#clip002)" d="
M1053.46 1186.94 L1053.46 1289.17 L1148.76 1289.17 L1148.76 1186.94 L1053.46 1186.94 L1053.46 1186.94  Z
  " fill="#e26f46" fill-rule="evenodd" fill-opacity="1"/>
<polyline clip-path="url(#clip002)" style="stroke:#000000; stroke-width:4; stroke-opacity:1; fill:none" points="
  1053.46,1186.94 1053.46,1289.17 1148.76,1289.17 1148.76,1186.94 1053.46,1186.94 
  "/>
<path clip-path="url(#clip002)" d="
M1172.58 1182.64 L1172.58 1239.42 L1267.88 1239.42 L1267.88 1182.64 L1172.58 1182.64 L1172.58 1182.64  Z
  " fill="#e26f46" fill-rule="evenodd" fill-opacity="1"/>
<polyline clip-path="url(#clip002)" style="stroke:#000000; stroke-width:4; stroke-opacity:1; fill:none" points="
  1172.58,1182.64 1172.58,1239.42 1267.88,1239.42 1267.88,1182.64 1172.58,1182.64 
  "/>
<path clip-path="url(#clip002)" d="
M1291.7 1165.2 L1291.7 1248.38 L1386.99 1248.38 L1386.99 1165.2 L1291.7 1165.2 L1291.7 1165.2  Z
  " fill="#e26f46" fill-rule="evenodd" fill-opacity="1"/>
<polyline clip-path="url(#clip002)" style="stroke:#000000; stroke-width:4; stroke-opacity:1; fill:none" points="
  1291.7,1165.2 1291.7,1248.38 1386.99,1248.38 1386.99,1165.2 1291.7,1165.2 
  "/>
<path clip-path="url(#clip002)" d="
M1410.82 936.196 L1410.82 1023.88 L1506.11 1023.88 L1506.11 936.196 L1410.82 936.196 L1410.82 936.196  Z
  " fill="#e26f46" fill-rule="evenodd" fill-opacity="1"/>
<polyline clip-path="url(#clip002)" style="stroke:#000000; stroke-width:4; stroke-opacity:1; fill:none" points="
  1410.82,936.196 1410.82,1023.88 1506.11,1023.88 1506.11,936.196 1410.82,936.196 
  "/>
<path clip-path="url(#clip002)" d="
M1529.94 804.885 L1529.94 908.865 L1625.23 908.865 L1625.23 804.885 L1529.94 804.885 L1529.94 804.885  Z
  " fill="#e26f46" fill-rule="evenodd" fill-opacity="1"/>
<polyline clip-path="url(#clip002)" style="stroke:#000000; stroke-width:4; stroke-opacity:1; fill:none" points="
  1529.94,804.885 1529.94,908.865 1625.23,908.865 1625.23,804.885 1529.94,804.885 
  "/>
<path clip-path="url(#clip002)" d="
M1649.06 649.903 L1649.06 770.017 L1744.35 770.017 L1744.35 649.903 L1649.06 649.903 L1649.06 649.903  Z
  " fill="#e26f46" fill-rule="evenodd" fill-opacity="1"/>
<polyline clip-path="url(#clip002)" style="stroke:#000000; stroke-width:4; stroke-opacity:1; fill:none" points="
  1649.06,649.903 1649.06,770.017 1744.35,770.017 1744.35,649.903 1649.06,649.903 
  "/>
<path clip-path="url(#clip002)" d="
M338.746 707.208 L338.746 817.929 L434.042 817.929 L434.042 707.208 L338.746 707.208 L338.746 707.208  Z
  " fill="#3da44d" fill-rule="evenodd" fill-opacity="1"/>
<polyline clip-path="url(#clip002)" style="stroke:#000000; stroke-width:4; stroke-opacity:1; fill:none" points="
  338.746,707.208 338.746,817.929 434.042,817.929 434.042,707.208 338.746,707.208 
  "/>
<path clip-path="url(#clip002)" d="
M457.866 777.622 L457.866 844.986 L553.161 844.986 L553.161 777.622 L457.866 777.622 L457.866 777.622  Z
  " fill="#3da44d" fill-rule="evenodd" fill-opacity="1"/>
<polyline clip-path="url(#clip002)" style="stroke:#000000; stroke-width:4; stroke-opacity:1; fill:none" points="
  457.866,777.622 457.866,844.986 553.161,844.986 553.161,777.622 457.866,777.622 
  "/>
<path clip-path="url(#clip002)" d="
M576.985 871.79 L576.985 927.629 L672.28 927.629 L672.28 871.79 L576.985 871.79 L576.985 871.79  Z
  " fill="#3da44d" fill-rule="evenodd" fill-opacity="1"/>
<polyline clip-path="url(#clip002)" style="stroke:#000000; stroke-width:4; stroke-opacity:1; fill:none" points="
  576.985,871.79 576.985,927.629 672.28,927.629 672.28,871.79 576.985,871.79 
  "/>
<path clip-path="url(#clip002)" d="
M696.104 1152.75 L696.104 1224.86 L791.399 1224.86 L791.399 1152.75 L696.104 1152.75 L696.104 1152.75  Z
  " fill="#3da44d" fill-rule="evenodd" fill-opacity="1"/>
<polyline clip-path="url(#clip002)" style="stroke:#000000; stroke-width:4; stroke-opacity:1; fill:none" points="
  696.104,1152.75 696.104,1224.86 791.399,1224.86 791.399,1152.75 696.104,1152.75 
  "/>
<path clip-path="url(#clip002)" d="
M815.223 1262.91 L815.223 1337.61 L910.518 1337.61 L910.518 1262.91 L815.223 1262.91 L815.223 1262.91  Z
  " fill="#3da44d" fill-rule="evenodd" fill-opacity="1"/>
<polyline clip-path="url(#clip002)" style="stroke:#000000; stroke-width:4; stroke-opacity:1; fill:none" points="
  815.223,1262.91 815.223,1337.61 910.518,1337.61 910.518,1262.91 815.223,1262.91 
  "/>
<path clip-path="url(#clip002)" d="
M934.342 1267.28 L934.342 1340.59 L1029.64 1340.59 L1029.64 1267.28 L934.342 1267.28 L934.342 1267.28  Z
  " fill="#3da44d" fill-rule="evenodd" fill-opacity="1"/>
<polyline clip-path="url(#clip002)" style="stroke:#000000; stroke-width:4; stroke-opacity:1; fill:none" points="
  934.342,1267.28 934.342,1340.59 1029.64,1340.59 1029.64,1267.28 934.342,1267.28 
  "/>
<path clip-path="url(#clip002)" d="
M1053.46 1289.17 L1053.46 1340.62 L1148.76 1340.62 L1148.76 1289.17 L1053.46 1289.17 L1053.46 1289.17  Z
  " fill="#3da44d" fill-rule="evenodd" fill-opacity="1"/>
<polyline clip-path="url(#clip002)" style="stroke:#000000; stroke-width:4; stroke-opacity:1; fill:none" points="
  1053.46,1289.17 1053.46,1340.62 1148.76,1340.62 1148.76,1289.17 1053.46,1289.17 
  "/>
<path clip-path="url(#clip002)" d="
M1172.58 1239.42 L1172.58 1348.91 L1267.88 1348.91 L1267.88 1239.42 L1172.58 1239.42 L1172.58 1239.42  Z
  " fill="#3da44d" fill-rule="evenodd" fill-opacity="1"/>
<polyline clip-path="url(#clip002)" style="stroke:#000000; stroke-width:4; stroke-opacity:1; fill:none" points="
  1172.58,1239.42 1172.58,1348.91 1267.88,1348.91 1267.88,1239.42 1172.58,1239.42 
  "/>
<path clip-path="url(#clip002)" d="
M1291.7 1248.38 L1291.7 1312.99 L1386.99 1312.99 L1386.99 1248.38 L1291.7 1248.38 L1291.7 1248.38  Z
  " fill="#3da44d" fill-rule="evenodd" fill-opacity="1"/>
<polyline clip-path="url(#clip002)" style="stroke:#000000; stroke-width:4; stroke-opacity:1; fill:none" points="
  1291.7,1248.38 1291.7,1312.99 1386.99,1312.99 1386.99,1248.38 1291.7,1248.38 
  "/>
<path clip-path="url(#clip002)" d="
M1410.82 1023.88 L1410.82 1084.77 L1506.11 1084.77 L1506.11 1023.88 L1410.82 1023.88 L1410.82 1023.88  Z
  " fill="#3da44d" fill-rule="evenodd" fill-opacity="1"/>
<polyline clip-path="url(#clip002)" style="stroke:#000000; stroke-width:4; stroke-opacity:1; fill:none" points="
  1410.82,1023.88 1410.82,1084.77 1506.11,1084.77 1506.11,1023.88 1410.82,1023.88 
  "/>
<path clip-path="url(#clip002)" d="
M1529.94 908.865 L1529.94 987.994 L1625.23 987.994 L1625.23 908.865 L1529.94 908.865 L1529.94 908.865  Z
  " fill="#3da44d" fill-rule="evenodd" fill-opacity="1"/>
<polyline clip-path="url(#clip002)" style="stroke:#000000; stroke-width:4; stroke-opacity:1; fill:none" points="
  1529.94,908.865 1529.94,987.994 1625.23,987.994 1625.23,908.865 1529.94,908.865 
  "/>
<path clip-path="url(#clip002)" d="
M1649.06 770.017 L1649.06 833.415 L1744.35 833.415 L1744.35 770.017 L1649.06 770.017 L1649.06 770.017  Z
  " fill="#3da44d" fill-rule="evenodd" fill-opacity="1"/>
<polyline clip-path="url(#clip002)" style="stroke:#000000; stroke-width:4; stroke-opacity:1; fill:none" points="
  1649.06,770.017 1649.06,833.415 1744.35,833.415 1744.35,770.017 1649.06,770.017 
  "/>
<path clip-path="url(#clip002)" d="
M338.746 817.929 L338.746 1384.24 L434.042 1384.24 L434.042 817.929 L338.746 817.929 L338.746 817.929  Z
  " fill="#c271d2" fill-rule="evenodd" fill-opacity="1"/>
<polyline clip-path="url(#clip002)" style="stroke:#000000; stroke-width:4; stroke-opacity:1; fill:none" points="
  338.746,817.929 338.746,1384.24 434.042,1384.24 434.042,817.929 338.746,817.929 
  "/>
<path clip-path="url(#clip002)" d="
M457.866 844.986 L457.866 1384.24 L553.161 1384.24 L553.161 844.986 L457.866 844.986 L457.866 844.986  Z
  " fill="#c271d2" fill-rule="evenodd" fill-opacity="1"/>
<polyline clip-path="url(#clip002)" style="stroke:#000000; stroke-width:4; stroke-opacity:1; fill:none" points="
  457.866,844.986 457.866,1384.24 553.161,1384.24 553.161,844.986 457.866,844.986 
  "/>
<path clip-path="url(#clip002)" d="
M576.985 927.629 L576.985 1384.24 L672.28 1384.24 L672.28 927.629 L576.985 927.629 L576.985 927.629  Z
  " fill="#c271d2" fill-rule="evenodd" fill-opacity="1"/>
<polyline clip-path="url(#clip002)" style="stroke:#000000; stroke-width:4; stroke-opacity:1; fill:none" points="
  576.985,927.629 576.985,1384.24 672.28,1384.24 672.28,927.629 576.985,927.629 
  "/>
<path clip-path="url(#clip002)" d="
M696.104 1224.86 L696.104 1384.24 L791.399 1384.24 L791.399 1224.86 L696.104 1224.86 L696.104 1224.86  Z
  " fill="#c271d2" fill-rule="evenodd" fill-opacity="1"/>
<polyline clip-path="url(#clip002)" style="stroke:#000000; stroke-width:4; stroke-opacity:1; fill:none" points="
  696.104,1224.86 696.104,1384.24 791.399,1384.24 791.399,1224.86 696.104,1224.86 
  "/>
<path clip-path="url(#clip002)" d="
M815.223 1337.61 L815.223 1384.24 L910.518 1384.24 L910.518 1337.61 L815.223 1337.61 L815.223 1337.61  Z
  " fill="#c271d2" fill-rule="evenodd" fill-opacity="1"/>
<polyline clip-path="url(#clip002)" style="stroke:#000000; stroke-width:4; stroke-opacity:1; fill:none" points="
  815.223,1337.61 815.223,1384.24 910.518,1384.24 910.518,1337.61 815.223,1337.61 
  "/>
<path clip-path="url(#clip002)" d="
M934.342 1340.59 L934.342 1384.24 L1029.64 1384.24 L1029.64 1340.59 L934.342 1340.59 L934.342 1340.59  Z
  " fill="#c271d2" fill-rule="evenodd" fill-opacity="1"/>
<polyline clip-path="url(#clip002)" style="stroke:#000000; stroke-width:4; stroke-opacity:1; fill:none" points="
  934.342,1340.59 934.342,1384.24 1029.64,1384.24 1029.64,1340.59 934.342,1340.59 
  "/>
<path clip-path="url(#clip002)" d="
M1053.46 1340.62 L1053.46 1384.24 L1148.76 1384.24 L1148.76 1340.62 L1053.46 1340.62 L1053.46 1340.62  Z
  " fill="#c271d2" fill-rule="evenodd" fill-opacity="1"/>
<polyline clip-path="url(#clip002)" style="stroke:#000000; stroke-width:4; stroke-opacity:1; fill:none" points="
  1053.46,1340.62 1053.46,1384.24 1148.76,1384.24 1148.76,1340.62 1053.46,1340.62 
  "/>
<path clip-path="url(#clip002)" d="
M1172.58 1348.91 L1172.58 1384.24 L1267.88 1384.24 L1267.88 1348.91 L1172.58 1348.91 L1172.58 1348.91  Z
  " fill="#c271d2" fill-rule="evenodd" fill-opacity="1"/>
<polyline clip-path="url(#clip002)" style="stroke:#000000; stroke-width:4; stroke-opacity:1; fill:none" points="
  1172.58,1348.91 1172.58,1384.24 1267.88,1384.24 1267.88,1348.91 1172.58,1348.91 
  "/>
<path clip-path="url(#clip002)" d="
M1291.7 1312.99 L1291.7 1384.24 L1386.99 1384.24 L1386.99 1312.99 L1291.7 1312.99 L1291.7 1312.99  Z
  " fill="#c271d2" fill-rule="evenodd" fill-opacity="1"/>
<polyline clip-path="url(#clip002)" style="stroke:#000000; stroke-width:4; stroke-opacity:1; fill:none" points="
  1291.7,1312.99 1291.7,1384.24 1386.99,1384.24 1386.99,1312.99 1291.7,1312.99 
  "/>
<path clip-path="url(#clip002)" d="
M1410.82 1084.77 L1410.82 1384.24 L1506.11 1384.24 L1506.11 1084.77 L1410.82 1084.77 L1410.82 1084.77  Z
  " fill="#c271d2" fill-rule="evenodd" fill-opacity="1"/>
<polyline clip-path="url(#clip002)" style="stroke:#000000; stroke-width:4; stroke-opacity:1; fill:none" points="
  1410.82,1084.77 1410.82,1384.24 1506.11,1384.24 1506.11,1084.77 1410.82,1084.77 
  "/>
<path clip-path="url(#clip002)" d="
M1529.94 987.994 L1529.94 1384.24 L1625.23 1384.24 L1625.23 987.994 L1529.94 987.994 L1529.94 987.994  Z
  " fill="#c271d2" fill-rule="evenodd" fill-opacity="1"/>
<polyline clip-path="url(#clip002)" style="stroke:#000000; stroke-width:4; stroke-opacity:1; fill:none" points="
  1529.94,987.994 1529.94,1384.24 1625.23,1384.24 1625.23,987.994 1529.94,987.994 
  "/>
<path clip-path="url(#clip002)" d="
M1649.06 833.415 L1649.06 1384.24 L1744.35 1384.24 L1744.35 833.415 L1649.06 833.415 L1649.06 833.415  Z
  " fill="#c271d2" fill-rule="evenodd" fill-opacity="1"/>
<polyline clip-path="url(#clip002)" style="stroke:#000000; stroke-width:4; stroke-opacity:1; fill:none" points="
  1649.06,833.415 1649.06,1384.24 1744.35,1384.24 1744.35,833.415 1649.06,833.415 
  "/>
<path clip-path="url(#clip000)" d="
M1901.25 395.509 L2352.76 395.509 L2352.76 93.1086 L1901.25 93.1086  Z
  " fill="#ffffff" fill-rule="evenodd" fill-opacity="1"/>
<polyline clip-path="url(#clip000)" style="stroke:#000000; stroke-width:4; stroke-opacity:1; fill:none" points="
  1901.25,395.509 2352.76,395.509 2352.76,93.1086 1901.25,93.1086 1901.25,395.509 
  "/>
<path clip-path="url(#clip000)" d="
M1924.59 177.781 L2064.65 177.781 L2064.65 129.397 L1924.59 129.397 L1924.59 177.781  Z
  " fill="#009af9" fill-rule="evenodd" fill-opacity="1"/>
<polyline clip-path="url(#clip000)" style="stroke:#000000; stroke-width:4; stroke-opacity:1; fill:none" points="
  1924.59,177.781 2064.65,177.781 2064.65,129.397 1924.59,129.397 1924.59,177.781 
  "/>
<path clip-path="url(#clip000)" d="M 0 0 M2087.99 136.309 L2092.69 136.309 L2092.69 157.304 Q2092.69 162.859 2094.71 165.313 Q2096.72 167.744 2101.23 167.744 Q2105.72 167.744 2107.74 165.313 Q2109.75 162.859 2109.75 157.304 L2109.75 136.309 L2114.45 136.309 L2114.45 157.883 Q2114.45 164.642 2111.09 168.091 Q2107.76 171.54 2101.23 171.54 Q2094.68 171.54 2091.33 168.091 Q2087.99 164.642 2087.99 157.883 L2087.99 136.309 Z" fill="#000000" fill-rule="evenodd" fill-opacity="1" /><path clip-path="url(#clip000)" d="M 0 0 M2140.47 155.221 L2140.47 170.869 L2136.21 170.869 L2136.21 155.359 Q2136.21 151.679 2134.77 149.85 Q2133.34 148.022 2130.47 148.022 Q2127.02 148.022 2125.03 150.221 Q2123.04 152.42 2123.04 156.216 L2123.04 170.869 L2118.76 170.869 L2118.76 144.943 L2123.04 144.943 L2123.04 148.971 Q2124.57 146.633 2126.63 145.475 Q2128.71 144.318 2131.42 144.318 Q2135.89 144.318 2138.18 147.096 Q2140.47 149.85 2140.47 155.221 Z" fill="#000000" fill-rule="evenodd" fill-opacity="1" /><path clip-path="url(#clip000)" d="M 0 0 M2144.77 134.85 L2149.06 134.85 L2149.06 156.123 L2161.76 144.943 L2167.2 144.943 L2153.45 157.072 L2167.78 170.869 L2162.23 170.869 L2149.06 158.207 L2149.06 170.869 L2144.77 170.869 L2144.77 134.85 Z" fill="#000000" fill-rule="evenodd" fill-opacity="1" /><path clip-path="url(#clip000)" d="M 0 0 M2193.8 155.221 L2193.8 170.869 L2189.54 170.869 L2189.54 155.359 Q2189.54 151.679 2188.11 149.85 Q2186.67 148.022 2183.8 148.022 Q2180.35 148.022 2178.36 150.221 Q2176.37 152.42 2176.37 156.216 L2176.37 170.869 L2172.09 170.869 L2172.09 144.943 L2176.37 144.943 L2176.37 148.971 Q2177.9 146.633 2179.96 145.475 Q2182.04 144.318 2184.75 144.318 Q2189.22 144.318 2191.51 147.096 Q2193.8 149.85 2193.8 155.221 Z" fill="#000000" fill-rule="evenodd" fill-opacity="1" /><path clip-path="url(#clip000)" d="M 0 0 M2208.32 147.929 Q2204.89 147.929 2202.9 150.614 Q2200.91 153.276 2200.91 157.929 Q2200.91 162.582 2202.88 165.267 Q2204.87 167.929 2208.32 167.929 Q2211.72 167.929 2213.71 165.244 Q2215.7 162.558 2215.7 157.929 Q2215.7 153.322 2213.71 150.637 Q2211.72 147.929 2208.32 147.929 M2208.32 144.318 Q2213.87 144.318 2217.04 147.929 Q2220.21 151.54 2220.21 157.929 Q2220.21 164.295 2217.04 167.929 Q2213.87 171.54 2208.32 171.54 Q2202.74 171.54 2199.57 167.929 Q2196.42 164.295 2196.42 157.929 Q2196.42 151.54 2199.57 147.929 Q2202.74 144.318 2208.32 144.318 Z" fill="#000000" fill-rule="evenodd" fill-opacity="1" /><path clip-path="url(#clip000)" d="M 0 0 M2222.2 144.943 L2226.46 144.943 L2231.79 165.174 L2237.09 144.943 L2242.11 144.943 L2247.44 165.174 L2252.74 144.943 L2257 144.943 L2250.21 170.869 L2245.19 170.869 L2239.61 149.619 L2234.01 170.869 L2228.99 170.869 L2222.2 144.943 Z" fill="#000000" fill-rule="evenodd" fill-opacity="1" /><path clip-path="url(#clip000)" d="M 0 0 M2283.01 155.221 L2283.01 170.869 L2278.76 170.869 L2278.76 155.359 Q2278.76 151.679 2277.32 149.85 Q2275.88 148.022 2273.01 148.022 Q2269.57 148.022 2267.57 150.221 Q2265.58 152.42 2265.58 156.216 L2265.58 170.869 L2261.3 170.869 L2261.3 144.943 L2265.58 144.943 L2265.58 148.971 Q2267.11 146.633 2269.17 145.475 Q2271.26 144.318 2273.96 144.318 Q2278.43 144.318 2280.72 147.096 Q2283.01 149.85 2283.01 155.221 Z" fill="#000000" fill-rule="evenodd" fill-opacity="1" /><path clip-path="url(#clip000)" d="
M1924.59 238.261 L2064.65 238.261 L2064.65 189.877 L1924.59 189.877 L1924.59 238.261  Z
  " fill="#e26f46" fill-rule="evenodd" fill-opacity="1"/>
<polyline clip-path="url(#clip000)" style="stroke:#000000; stroke-width:4; stroke-opacity:1; fill:none" points="
  1924.59,238.261 2064.65,238.261 2064.65,189.877 1924.59,189.877 1924.59,238.261 
  "/>
<path clip-path="url(#clip000)" d="M 0 0 M2087.99 196.789 L2117.23 196.789 L2117.23 200.724 L2104.96 200.724 L2104.96 231.349 L2100.26 231.349 L2100.26 200.724 L2087.99 200.724 L2087.99 196.789 Z" fill="#000000" fill-rule="evenodd" fill-opacity="1" /><path clip-path="url(#clip000)" d="M 0 0 M2130.79 231.349 L2117.6 196.789 L2122.48 196.789 L2133.43 225.886 L2144.4 196.789 L2149.27 196.789 L2136.09 231.349 L2130.79 231.349 Z" fill="#000000" fill-rule="evenodd" fill-opacity="1" /><path clip-path="url(#clip000)" d="
M1924.59 298.741 L2064.65 298.741 L2064.65 250.357 L1924.59 250.357 L1924.59 298.741  Z
  " fill="#3da44d" fill-rule="evenodd" fill-opacity="1"/>
<polyline clip-path="url(#clip000)" style="stroke:#000000; stroke-width:4; stroke-opacity:1; fill:none" points="
  1924.59,298.741 2064.65,298.741 2064.65,250.357 1924.59,250.357 1924.59,298.741 
  "/>
<path clip-path="url(#clip000)" d="M 0 0 M2115.86 259.931 L2115.86 264.861 Q2113.5 262.662 2110.82 261.574 Q2108.15 260.486 2105.14 260.486 Q2099.22 260.486 2096.07 264.12 Q2092.92 267.732 2092.92 274.583 Q2092.92 281.412 2096.07 285.046 Q2099.22 288.657 2105.14 288.657 Q2108.15 288.657 2110.82 287.569 Q2113.5 286.481 2115.86 284.282 L2115.86 289.167 Q2113.41 290.833 2110.65 291.667 Q2107.92 292.5 2104.87 292.5 Q2097.02 292.5 2092.51 287.708 Q2087.99 282.893 2087.99 274.583 Q2087.99 266.25 2092.51 261.458 Q2097.02 256.644 2104.87 256.644 Q2107.97 256.644 2110.7 257.477 Q2113.46 258.287 2115.86 259.931 Z" fill="#000000" fill-rule="evenodd" fill-opacity="1" /><path clip-path="url(#clip000)" d="M 0 0 M2130.38 268.889 Q2126.95 268.889 2124.96 271.574 Q2122.97 274.236 2122.97 278.889 Q2122.97 283.542 2124.94 286.227 Q2126.93 288.889 2130.38 288.889 Q2133.78 288.889 2135.77 286.204 Q2137.76 283.518 2137.76 278.889 Q2137.76 274.282 2135.77 271.597 Q2133.78 268.889 2130.38 268.889 M2130.38 265.278 Q2135.93 265.278 2139.1 268.889 Q2142.27 272.5 2142.27 278.889 Q2142.27 285.255 2139.1 288.889 Q2135.93 292.5 2130.38 292.5 Q2124.8 292.5 2121.63 288.889 Q2118.48 285.255 2118.48 278.889 Q2118.48 272.5 2121.63 268.889 Q2124.8 265.278 2130.38 265.278 Z" fill="#000000" fill-rule="evenodd" fill-opacity="1" /><path clip-path="url(#clip000)" d="M 0 0 M2166.93 270.88 Q2168.52 268.009 2170.75 266.644 Q2172.97 265.278 2175.98 265.278 Q2180.03 265.278 2182.23 268.125 Q2184.43 270.949 2184.43 276.181 L2184.43 291.829 L2180.14 291.829 L2180.14 276.319 Q2180.14 272.593 2178.83 270.787 Q2177.51 268.982 2174.8 268.982 Q2171.49 268.982 2169.57 271.181 Q2167.64 273.38 2167.64 277.176 L2167.64 291.829 L2163.36 291.829 L2163.36 276.319 Q2163.36 272.569 2162.04 270.787 Q2160.72 268.982 2157.97 268.982 Q2154.7 268.982 2152.78 271.204 Q2150.86 273.403 2150.86 277.176 L2150.86 291.829 L2146.58 291.829 L2146.58 265.903 L2150.86 265.903 L2150.86 269.931 Q2152.32 267.546 2154.36 266.412 Q2156.39 265.278 2159.2 265.278 Q2162.02 265.278 2163.99 266.713 Q2165.98 268.148 2166.93 270.88 Z" fill="#000000" fill-rule="evenodd" fill-opacity="1" /><path clip-path="url(#clip000)" d="M 0 0 M2193.01 287.94 L2193.01 301.69 L2188.73 301.69 L2188.73 265.903 L2193.01 265.903 L2193.01 269.838 Q2194.36 267.523 2196.39 266.412 Q2198.45 265.278 2201.3 265.278 Q2206.02 265.278 2208.96 269.028 Q2211.93 272.778 2211.93 278.889 Q2211.93 285 2208.96 288.75 Q2206.02 292.5 2201.3 292.5 Q2198.45 292.5 2196.39 291.389 Q2194.36 290.255 2193.01 287.94 M2207.51 278.889 Q2207.51 274.19 2205.56 271.528 Q2203.64 268.843 2200.26 268.843 Q2196.88 268.843 2194.94 271.528 Q2193.01 274.19 2193.01 278.889 Q2193.01 283.588 2194.94 286.273 Q2196.88 288.935 2200.26 288.935 Q2203.64 288.935 2205.56 286.273 Q2207.51 283.588 2207.51 278.889 Z" fill="#000000" fill-rule="evenodd" fill-opacity="1" /><path clip-path="url(#clip000)" d="M 0 0 M2215.95 281.597 L2215.95 265.903 L2220.21 265.903 L2220.21 281.435 Q2220.21 285.116 2221.65 286.968 Q2223.08 288.796 2225.95 288.796 Q2229.4 288.796 2231.39 286.597 Q2233.41 284.398 2233.41 280.602 L2233.41 265.903 L2237.67 265.903 L2237.67 291.829 L2233.41 291.829 L2233.41 287.847 Q2231.86 290.208 2229.8 291.366 Q2227.76 292.5 2225.05 292.5 Q2220.58 292.5 2218.27 289.722 Q2215.95 286.944 2215.95 281.597 M2226.67 265.278 L2226.67 265.278 Z" fill="#000000" fill-rule="evenodd" fill-opacity="1" /><path clip-path="url(#clip000)" d="M 0 0 M2246.35 258.542 L2246.35 265.903 L2255.12 265.903 L2255.12 269.213 L2246.35 269.213 L2246.35 283.287 Q2246.35 286.458 2247.2 287.361 Q2248.08 288.264 2250.75 288.264 L2255.12 288.264 L2255.12 291.829 L2250.75 291.829 Q2245.82 291.829 2243.94 290 Q2242.07 288.148 2242.07 283.287 L2242.07 269.213 L2238.94 269.213 L2238.94 265.903 L2242.07 265.903 L2242.07 258.542 L2246.35 258.542 Z" fill="#000000" fill-rule="evenodd" fill-opacity="1" /><path clip-path="url(#clip000)" d="M 0 0 M2281.76 277.801 L2281.76 279.884 L2262.18 279.884 Q2262.46 284.282 2264.82 286.597 Q2267.2 288.889 2271.44 288.889 Q2273.89 288.889 2276.19 288.287 Q2278.5 287.685 2280.77 286.481 L2280.77 290.509 Q2278.48 291.481 2276.07 291.991 Q2273.66 292.5 2271.19 292.5 Q2264.98 292.5 2261.35 288.889 Q2257.74 285.278 2257.74 279.12 Q2257.74 272.755 2261.16 269.028 Q2264.61 265.278 2270.44 265.278 Q2275.68 265.278 2278.71 268.657 Q2281.76 272.014 2281.76 277.801 M2277.51 276.551 Q2277.46 273.056 2275.54 270.972 Q2273.64 268.889 2270.49 268.889 Q2266.93 268.889 2264.77 270.903 Q2262.64 272.917 2262.32 276.574 L2277.51 276.551 Z" fill="#000000" fill-rule="evenodd" fill-opacity="1" /><path clip-path="url(#clip000)" d="M 0 0 M2301.25 269.884 Q2300.54 269.468 2299.68 269.282 Q2298.85 269.074 2297.83 269.074 Q2294.22 269.074 2292.27 271.435 Q2290.35 273.773 2290.35 278.171 L2290.35 291.829 L2286.07 291.829 L2286.07 265.903 L2290.35 265.903 L2290.35 269.931 Q2291.69 267.569 2293.85 266.435 Q2296 265.278 2299.08 265.278 Q2299.52 265.278 2300.05 265.347 Q2300.58 265.394 2301.23 265.509 L2301.25 269.884 Z" fill="#000000" fill-rule="evenodd" fill-opacity="1" /><path clip-path="url(#clip000)" d="
M1924.59 359.221 L2064.65 359.221 L2064.65 310.837 L1924.59 310.837 L1924.59 359.221  Z
  " fill="#c271d2" fill-rule="evenodd" fill-opacity="1"/>
<polyline clip-path="url(#clip000)" style="stroke:#000000; stroke-width:4; stroke-opacity:1; fill:none" points="
  1924.59,359.221 2064.65,359.221 2064.65,310.837 1924.59,310.837 1924.59,359.221 
  "/>
<path clip-path="url(#clip000)" d="M 0 0 M2087.99 317.749 L2092.67 317.749 L2092.67 331.915 L2109.66 331.915 L2109.66 317.749 L2114.33 317.749 L2114.33 352.309 L2109.66 352.309 L2109.66 335.85 L2092.67 335.85 L2092.67 352.309 L2087.99 352.309 L2087.99 317.749 Z" fill="#000000" fill-rule="evenodd" fill-opacity="1" /><path clip-path="url(#clip000)" d="M 0 0 M2140.98 338.281 L2140.98 340.364 L2121.39 340.364 Q2121.67 344.762 2124.03 347.077 Q2126.42 349.369 2130.65 349.369 Q2133.11 349.369 2135.4 348.767 Q2137.71 348.165 2139.98 346.961 L2139.98 350.989 Q2137.69 351.961 2135.28 352.471 Q2132.88 352.98 2130.4 352.98 Q2124.2 352.98 2120.56 349.369 Q2116.95 345.758 2116.95 339.6 Q2116.95 333.235 2120.38 329.508 Q2123.83 325.758 2129.66 325.758 Q2134.89 325.758 2137.92 329.137 Q2140.98 332.494 2140.98 338.281 M2136.72 337.031 Q2136.67 333.536 2134.75 331.452 Q2132.85 329.369 2129.7 329.369 Q2126.14 329.369 2123.99 331.383 Q2121.86 333.397 2121.53 337.054 L2136.72 337.031 Z" fill="#000000" fill-rule="evenodd" fill-opacity="1" /><path clip-path="url(#clip000)" d="M 0 0 M2157.23 339.276 Q2152.07 339.276 2150.08 340.457 Q2148.08 341.637 2148.08 344.485 Q2148.08 346.753 2149.57 348.096 Q2151.07 349.415 2153.64 349.415 Q2157.18 349.415 2159.31 346.915 Q2161.46 344.392 2161.46 340.225 L2161.46 339.276 L2157.23 339.276 M2165.72 337.517 L2165.72 352.309 L2161.46 352.309 L2161.46 348.373 Q2160.01 350.735 2157.83 351.869 Q2155.65 352.98 2152.51 352.98 Q2148.52 352.98 2146.16 350.758 Q2143.83 348.512 2143.83 344.762 Q2143.83 340.387 2146.74 338.165 Q2149.68 335.943 2155.49 335.943 L2161.46 335.943 L2161.46 335.526 Q2161.46 332.587 2159.52 330.989 Q2157.6 329.369 2154.1 329.369 Q2151.88 329.369 2149.77 329.901 Q2147.67 330.434 2145.72 331.499 L2145.72 327.563 Q2148.06 326.661 2150.26 326.221 Q2152.46 325.758 2154.54 325.758 Q2160.17 325.758 2162.95 328.674 Q2165.72 331.591 2165.72 337.517 Z" fill="#000000" fill-rule="evenodd" fill-opacity="1" /><path clip-path="url(#clip000)" d="M 0 0 M2174.4 319.022 L2174.4 326.383 L2183.18 326.383 L2183.18 329.693 L2174.4 329.693 L2174.4 343.767 Q2174.4 346.938 2175.26 347.841 Q2176.14 348.744 2178.8 348.744 L2183.18 348.744 L2183.18 352.309 L2178.8 352.309 Q2173.87 352.309 2172 350.48 Q2170.12 348.628 2170.12 343.767 L2170.12 329.693 L2167 329.693 L2167 326.383 L2170.12 326.383 L2170.12 319.022 L2174.4 319.022 Z" fill="#000000" fill-rule="evenodd" fill-opacity="1" /><path clip-path="url(#clip000)" d="M 0 0 M2191.76 348.42 L2191.76 362.17 L2187.48 362.17 L2187.48 326.383 L2191.76 326.383 L2191.76 330.318 Q2193.11 328.003 2195.14 326.892 Q2197.2 325.758 2200.05 325.758 Q2204.77 325.758 2207.71 329.508 Q2210.68 333.258 2210.68 339.369 Q2210.68 345.48 2207.71 349.23 Q2204.77 352.98 2200.05 352.98 Q2197.2 352.98 2195.14 351.869 Q2193.11 350.735 2191.76 348.42 M2206.26 339.369 Q2206.26 334.67 2204.31 332.008 Q2202.39 329.323 2199.01 329.323 Q2195.63 329.323 2193.69 332.008 Q2191.76 334.67 2191.76 339.369 Q2191.76 344.068 2193.69 346.753 Q2195.63 349.415 2199.01 349.415 Q2202.39 349.415 2204.31 346.753 Q2206.26 344.068 2206.26 339.369 Z" fill="#000000" fill-rule="evenodd" fill-opacity="1" /><path clip-path="url(#clip000)" d="M 0 0 M2214.7 342.077 L2214.7 326.383 L2218.96 326.383 L2218.96 341.915 Q2218.96 345.596 2220.4 347.448 Q2221.83 349.276 2224.7 349.276 Q2228.15 349.276 2230.14 347.077 Q2232.16 344.878 2232.16 341.082 L2232.16 326.383 L2236.42 326.383 L2236.42 352.309 L2232.16 352.309 L2232.16 348.327 Q2230.61 350.688 2228.55 351.846 Q2226.51 352.98 2223.8 352.98 Q2219.33 352.98 2217.02 350.202 Q2214.7 347.424 2214.7 342.077 M2225.42 325.758 L2225.42 325.758 Z" fill="#000000" fill-rule="evenodd" fill-opacity="1" /><path clip-path="url(#clip000)" d="M 0 0 M2261.07 331.36 Q2262.67 328.489 2264.89 327.124 Q2267.11 325.758 2270.12 325.758 Q2274.17 325.758 2276.37 328.605 Q2278.57 331.429 2278.57 336.661 L2278.57 352.309 L2274.29 352.309 L2274.29 336.799 Q2274.29 333.073 2272.97 331.267 Q2271.65 329.462 2268.94 329.462 Q2265.63 329.462 2263.71 331.661 Q2261.79 333.86 2261.79 337.656 L2261.79 352.309 L2257.51 352.309 L2257.51 336.799 Q2257.51 333.049 2256.19 331.267 Q2254.87 329.462 2252.11 329.462 Q2248.85 329.462 2246.93 331.684 Q2245.01 333.883 2245.01 337.656 L2245.01 352.309 L2240.72 352.309 L2240.72 326.383 L2245.01 326.383 L2245.01 330.411 Q2246.46 328.026 2248.5 326.892 Q2250.54 325.758 2253.34 325.758 Q2256.16 325.758 2258.13 327.193 Q2260.12 328.628 2261.07 331.36 Z" fill="#000000" fill-rule="evenodd" fill-opacity="1" /><path clip-path="url(#clip000)" d="M 0 0 M2287.16 348.42 L2287.16 362.17 L2282.88 362.17 L2282.88 326.383 L2287.16 326.383 L2287.16 330.318 Q2288.5 328.003 2290.54 326.892 Q2292.6 325.758 2295.44 325.758 Q2300.17 325.758 2303.11 329.508 Q2306.07 333.258 2306.07 339.369 Q2306.07 345.48 2303.11 349.23 Q2300.17 352.98 2295.44 352.98 Q2292.6 352.98 2290.54 351.869 Q2288.5 350.735 2287.16 348.42 M2301.65 339.369 Q2301.65 334.67 2299.7 332.008 Q2297.78 329.323 2294.4 329.323 Q2291.02 329.323 2289.08 332.008 Q2287.16 334.67 2287.16 339.369 Q2287.16 344.068 2289.08 346.753 Q2291.02 349.415 2294.4 349.415 Q2297.78 349.415 2299.7 346.753 Q2301.65 344.068 2301.65 339.369 Z" fill="#000000" fill-rule="evenodd" fill-opacity="1" /></svg>
